<?xml version="1.0" standalone="no"?>
<!DOCTYPE svg PUBLIC "-//W3C//DTD SVG 20010904//EN"
 "http://www.w3.org/TR/2001/REC-SVG-20010904/DTD/svg10.dtd">
<svg version="1.0" xmlns="http://www.w3.org/2000/svg"
 width="195.000000pt" height="195.000000pt" viewBox="0 0 195.000000 195.000000"
 preserveAspectRatio="xMidYMid meet">
<metadata>
Created by potrace 1.14, written by Peter Selinger 2001-2017
</metadata>
<g transform="translate(0.000000,195.000000) scale(0.100000,-0.100000)"
fill="#000000" stroke="none">
<path d="M10 1467 c0 -4 67 -171 85 -212 18 -42 213 -525 266 -662 l44 -112
570 0 570 -1 69 178 c38 97 72 182 75 187 14 26 249 620 247 623 -2 1 -30 -15
-62 -36 -54 -35 -156 -101 -512 -329 -70 -44 -130 -79 -133 -77 -6 3 -117 194
-209 359 -19 35 -39 64 -44 65 -5 1 -21 -20 -35 -47 -14 -26 -29 -49 -33 -51
-5 -2 -8 -7 -8 -12 0 -7 -70 -131 -160 -285 -10 -16 -22 -29 -27 -28 -5 1
-148 91 -317 200 -301 194 -386 247 -386 240z m993 -159 c25 -50 79 -146 125
-220 62 -104 65 -95 -47 -166 -54 -34 -102 -62 -106 -62 -6 0 -137 80 -198
121 -9 6 13 51 76 159 18 30 50 88 72 127 22 40 45 73 51 73 6 0 18 -15 27
-32z m807 -17 c-27 -68 -69 -172 -80 -196 -8 -18 -140 -346 -198 -493 -21 -56
-26 -61 -37 -45 -27 41 -237 414 -234 416 18 10 57 35 183 117 158 103 162
106 257 164 35 22 78 50 94 63 17 12 31 23 32 23 2 0 -6 -22 -17 -49z m-1490
-81 c96 -62 218 -140 270 -173 52 -33 97 -61 99 -63 2 -2 -18 -41 -44 -86 -26
-46 -59 -103 -72 -128 -14 -25 -29 -49 -33 -55 -5 -5 -23 -37 -41 -70 -17 -33
-38 -68 -44 -78 -10 -15 -28 22 -120 250 -59 148 -131 326 -160 396 -30 71
-48 126 -41 124 6 -3 90 -55 186 -117z m587 -396 c-7 -7 -82 -56 -167 -111
-85 -55 -168 -108 -184 -118 l-28 -19 22 44 c12 24 49 88 81 143 32 54 59 101
59 103 0 2 11 22 25 44 l25 40 90 -58 c69 -44 87 -59 77 -68z m405 -49 c47
-82 91 -161 98 -175 l13 -24 -29 19 c-16 10 -92 59 -169 108 -77 49 -153 99
-168 110 l-29 20 89 57 c66 44 91 55 99 47 6 -7 49 -79 96 -162z m-262 -25 c3
-4 12 -9 20 -13 23 -10 294 -187 289 -188 -18 -5 -766 -3 -763 3 2 3 52 37
111 75 59 37 143 91 187 120 l80 52 35 -21 c20 -12 38 -25 41 -28z"/>
</g>
</svg>
